<svg xmlns="http://www.w3.org/2000/svg" width="466.02" height="120.366" viewBox="0 0 466.02 120.366">
  <g id="グループ_892" data-name="グループ 892" transform="translate(-286.23 -240.361)">
    <path id="パス_1636" data-name="パス 1636" d="M16.92,1.68C21.6-2.7,26.7-8.64,31.14-13.62L44.76,1.08a4.105,4.105,0,0,0,5.64.24,3.994,3.994,0,0,0,.3-5.64L36.24-19.5c1.8-2.16,2.88-3.48,2.88-3.48,3.24-4.68,3.12-7.5,3.12-16.44a4.344,4.344,0,0,0-4.32-4.74H18.6a4.02,4.02,0,0,0-4.02,4.02,4.008,4.008,0,0,0,4.02,3.96H34.38c.06,3.9.12,6.18-2.04,9.18C27.36-20.16,20.1-12.6,11.52-4.26a4.119,4.119,0,0,0-.24,5.7A3.988,3.988,0,0,0,16.92,1.68ZM298.249-18.929a3.611,3.611,0,0,0,3.6-3.6v-4.98a3.572,3.572,0,0,0-3.6-3.6,3.572,3.572,0,0,0-3.6,3.6v4.98A3.611,3.611,0,0,0,298.249-18.929Zm10.38,0a3.611,3.611,0,0,0,3.6-3.6v-4.98a3.572,3.572,0,0,0-3.6-3.6,3.572,3.572,0,0,0-3.6,3.6v4.98A3.611,3.611,0,0,0,308.629-18.929Zm-4.08,21.42a3.9,3.9,0,0,0,5.34.18,73.94,73.94,0,0,0,14.22-17.4,13.438,13.438,0,0,0,1.8-6.72v-6.9a3.849,3.849,0,0,0-1.08-2.58,3.537,3.537,0,0,0-2.52-1.02,3.611,3.611,0,0,0-3.6,3.6v6.3a8.408,8.408,0,0,1-.78,3.9c-3.36,6.36-7.14,9.78-12.12,14.76C303.049-1.349,303.409,1.291,304.549,2.491ZM342.578-9.3c.24,4.8,3.48,10.5,15.36,10.98,4.62.18,7.44-.42,12.36-1.2a4.412,4.412,0,0,0,3.54-4.74,3.758,3.758,0,0,0-4.38-3.3c-4.62.66-7.08,1.38-11.16,1.2-5.64-.24-7.26-.9-8.04-3.66-.66-2.28.66-4.74,3.3-7.2,3.322-3.122,4.348-3.921,8.244-7.169,1.594-1.329,4.08-3.415,7.836-6.631a3.926,3.926,0,0,0,.42-5.58,3.976,3.976,0,0,0-5.58-.42c-4.74,3.96-6.36,5.46-8.28,7.08l-4.26-13.32a4.009,4.009,0,0,0-5.04-2.52,3.96,3.96,0,0,0-2.52,5.04l5.82,16.26C343.538-18.18,342.4-14.7,342.578-9.3ZM20.34,71.94c5.76.48,8.64-3.3,8.64-11.28V53.22c6.3-1.26,11.7-.06,11.7,5.28-.06,2.52-2.28,5.28-5.04,8.04-1.86,1.8-1.98,4.2-.66,5.58,1.5,1.62,4.5,1.56,6.18.12,3.66-3.18,7.56-8.34,7.38-13.92-.24-9.96-7.92-13.8-19.56-12.84v-8.4h6.48a3.96,3.96,0,0,0,0-7.92H28.98V25.32a3.99,3.99,0,0,0-7.98,0v3.84H17.22a3.96,3.96,0,0,0,0,7.92H21v9.66C13.86,48.72,9.96,52.5,9.96,58.02,9.96,65.58,16.44,71.64,20.34,71.94ZM21,55.02c0,3.72.12,8.28-.24,8.22-1.14-.06-3.54-2.52-3.24-5.22A3.94,3.94,0,0,1,21,55.02ZM47.34,38.88a3.956,3.956,0,0,0,3.96-3.96V30.66a3.99,3.99,0,0,0-7.98,0v4.26A3.969,3.969,0,0,0,47.34,38.88ZM86.48,16.7a3.956,3.956,0,0,0-3.96,3.96v3.48H68.12a3.96,3.96,0,1,0,0,7.92h14.4v3.9H75.68a3.96,3.96,0,1,0,0,7.92h17.4v.66c0,1.68-.66,2.4-1.8,3.48,0,0-2.52,2.16-4.32,3.72L81.8,46.82a3.964,3.964,0,1,0-5.04,6.12l4.44,4.08c-4.14,3.66-9.6,8.04-12.36,10.38a3.976,3.976,0,1,0,5.22,6l12.9-11.1,10.56,9.66a7.83,7.83,0,0,0,5.1,2.16l1.2-.06a4.154,4.154,0,0,0,.06-8.28h-.72l-10.2-8.76,4.14-3.66c2.94-2.58,3.9-4.68,3.9-8.34V39.68a4,4,0,0,0-3.96-3.78l-6.6.06v-3.9h14.58a3.96,3.96,0,1,0,0-7.92H90.44V20.66A3.919,3.919,0,0,0,86.48,16.7ZM165.5,50.66a3.9,3.9,0,0,0-5.1-2.28,3.947,3.947,0,0,0-2.28,5.1c.9,2.46,2.52,5.82,3.42,8.34a80.015,80.015,0,0,1-12.12.9l10.68-35.7a4,4,0,0,0-7.68-2.22L141.2,62.6a4.151,4.151,0,0,0-3.3,3.42,3.766,3.766,0,0,0,3.42,4.32,136.563,136.563,0,0,0,23.04-.78,3.992,3.992,0,0,0,4.68,1.68,4.2,4.2,0,0,0,2.4-5.22S166.94,54.44,165.5,50.66ZM134.78,36.98a3.991,3.991,0,0,0,0-7.98h-.72V23.3a3.57,3.57,0,1,0-7.14,0V29h-1.26a3.96,3.96,0,1,0,0,7.92h1.26v9l-3.9,1.92a4.009,4.009,0,0,0-1.86,5.34,3.917,3.917,0,0,0,5.28,1.8l.48-.24v9.72h-.54a3.958,3.958,0,0,0-4.02,3.9,4.008,4.008,0,0,0,3.96,4.02h3.66a4.017,4.017,0,0,0,4.08-4.26V51.26l2.04-1.02a4.036,4.036,0,0,0,2.22-5.34,3.239,3.239,0,0,0-4.26-1.86V36.98ZM188.36,66.5c2.1.3,5.22-1.8,9.54-4.26a4.233,4.233,0,0,0,1.56-5.58A4.032,4.032,0,0,0,194,55.28c-.6.36-1.44.9-2.34,1.44-1.08-3.72-1.14-7.26-1.26-11.22a76.509,76.509,0,0,1,.9-11.94,3.977,3.977,0,0,0-3.3-4.5,4.06,4.06,0,0,0-4.62,3.36,105.991,105.991,0,0,0-.9,13.44C182.66,59.24,185.24,66.56,188.36,66.5Zm27.42-13.86a4.108,4.108,0,0,0,4.92,2.88,3.846,3.846,0,0,0,2.82-4.8,64.714,64.714,0,0,0-4.98-13.08,3.985,3.985,0,0,0-5.4-1.62,4.145,4.145,0,0,0-1.56,5.46A67.5,67.5,0,0,1,215.78,52.64ZM239.66,69.5a3.4,3.4,0,0,0,4.8,0,3.3,3.3,0,0,0,0-4.8l-5.58-5.58a3.394,3.394,0,1,0-4.8,4.8Z" transform="translate(276.27 286.334)" fill="#01469B"/>
    <path id="パス_1601" data-name="パス 1601" d="M5.217,18.523c4.958-4.64,10.361-10.933,15.064-16.208L34.71,17.888a4.349,4.349,0,0,0,5.975.254A4.231,4.231,0,0,0,41,12.167L25.684-3.914C27.591-6.2,28.735-7.6,28.735-7.6c3.432-4.958,3.305-7.945,3.305-17.416a4.6,4.6,0,0,0-4.576-5.021H7a4.259,4.259,0,0,0-4.259,4.259A4.246,4.246,0,0,0,7-21.584H23.714c.064,4.132.127,6.547-2.161,9.725C16.277-4.613,8.586,3.4-.5,12.231a4.364,4.364,0,0,0-.254,6.038A4.224,4.224,0,0,0,5.217,18.523ZM52.944-3.66H90.024A4.249,4.249,0,0,0,93.96-6.583a3.737,3.737,0,0,0,.2-1.272,4.123,4.123,0,0,0-4.132-4.132H52.944a4.123,4.123,0,0,0-4.132,4.132A4.178,4.178,0,0,0,52.944-3.66ZM155.583,2.315,131.239-19.169a6.722,6.722,0,0,0-9.28.254L108.1-4.74a4.22,4.22,0,0,0,0,5.975,4.144,4.144,0,0,0,5.911,0c3.432-3.305,10.17-10.615,12.712-13.221,3.623,3.242,17.1,15.191,23.264,20.658a4.234,4.234,0,0,0,5.593-6.356ZM144.778-26.1a5.561,5.561,0,0,0-5.593,5.593,5.548,5.548,0,0,0,5.593,5.53,5.534,5.534,0,0,0,5.53-5.53A5.548,5.548,0,0,0,144.778-26.1Zm0,8.009a2.442,2.442,0,0,1-2.479-2.479,2.442,2.442,0,0,1,2.479-2.479,2.482,2.482,0,0,1,2.479,2.479A2.482,2.482,0,0,1,144.778-18.088Zm26,15c6.42-3.242,11.568-6.42,15.763-8.9v27.84a4.2,4.2,0,1,0,8.39,0V-17.58a42.581,42.581,0,0,0,7.627-6.738,4.177,4.177,0,0,0-.509-5.975,4.694,4.694,0,0,0-6.1.763c-3.305,3.623-11.123,9.6-28.857,18.878a4.24,4.24,0,0,0-1.907,5.657A4.1,4.1,0,0,0,170.779-3.088Z" transform="translate(548.667 340.678)" fill="#01469B"/>
    <path id="パス_1637" data-name="パス 1637" d="M4.165,0H218.8a4.165,4.165,0,0,1,0,8.33H4.165a4.165,4.165,0,0,1,0-8.33Z" transform="translate(336.13 259.824)" fill="#01469B"/>
  </g>
</svg>
